# xmcd
#
# Track frame offsets:
# 150
# 19681
# 34302
# 47593
# 63709
# 80852
# 92944
# 105436
# 120284
# 137383
#
# Disc length: 1993 seconds
#
#
# Revision: 0
# Processed by: cddbd v1.5.2PL0 Copyright (c) Steve Scherf et al.
# Submitted via: FreeRIP 2.951 
#
DISCID=7e07c70a
DTITLE=James Last - Country Roads
DYEAR=2004
DGENRE=Instrumental
TTITLE0=Lying eyes
TTITLE1=Jolene
TTITLE2=Take me home country roads
TTITLE3=Always om my mind
TTITLE4=Don´t it make my brown eyes blue
TTITLE5=When the snow is on the roses
TTITLE6=Stand by your man
TTITLE7=Leaving on a jet plane
TTITLE8=Talkin´n in your sleep
TTITLE9=On the road again
EXTD=
EXTT0=
EXTT1=
EXTT2=
EXTT3=
EXTT4=
EXTT5=
EXTT6=
EXTT7=
EXTT8=
EXTT9=
PLAYORDER=
